<?xml version="1.0" standalone="no"?>
<!DOCTYPE svg PUBLIC "-//W3C//DTD SVG 20010904//EN"
 "http://www.w3.org/TR/2001/REC-SVG-20010904/DTD/svg10.dtd">
<svg version="1.0" xmlns="http://www.w3.org/2000/svg"
 width="1024.000000pt" height="1024.000000pt" viewBox="0 0 1024.000000 1024.000000"
 preserveAspectRatio="xMidYMid meet">
<metadata>
Created by potrace 1.11, written by Peter Selinger 2001-2013
</metadata>
<g transform="translate(0.000000,1024.000000) scale(0.100000,-0.100000)"
fill="#000000" stroke="none">
<path d="M4810 10237 c-3 -2 -43 -7 -90 -11 -47 -4 -101 -8 -120 -11 -19 -2
-60 -6 -90 -10 -102 -11 -262 -36 -389 -61 -1174 -233 -2229 -872 -2989 -1812
-176 -217 -345 -467 -476 -700 -70 -125 -182 -349 -226 -452 -17 -41 -40 -93
-50 -115 -17 -39 -98 -258 -125 -340 -55 -166 -143 -500 -159 -605 -3 -19 -8
-46 -11 -60 -10 -48 -40 -239 -50 -325 -3 -27 -8 -63 -10 -80 -21 -159 -28
-752 -12 -945 16 -191 48 -413 89 -615 19 -99 89 -382 108 -440 6 -16 24 -71
40 -122 299 -929 883 -1776 1655 -2399 483 -390 1030 -687 1629 -885 166 -55
489 -137 641 -164 17 -3 68 -12 115 -20 47 -8 112 -17 145 -21 33 -3 62 -7 65
-9 3 -1 43 -6 90 -10 47 -3 123 -10 170 -16 109 -11 607 -11 725 0 50 5 124
12 165 16 41 3 82 8 90 10 8 2 40 7 70 10 218 25 615 113 865 193 406 130 809
319 1185 554 186 117 477 334 624 467 22 20 65 58 96 85 62 56 262 256 330
331 511 562 891 1232 1114 1965 33 107 106 399 120 480 3 19 8 46 11 60 3 14
7 39 10 55 3 17 7 41 10 55 2 14 7 45 10 70 3 25 8 52 10 60 2 8 7 49 10 90 3
41 8 82 10 90 20 80 28 739 12 925 -26 301 -75 593 -148 875 -286 1118 -953
2114 -1884 2815 -443 333 -936 592 -1458 765 -86 28 -161 53 -169 54 -7 2 -38
10 -69 20 -31 9 -65 18 -75 21 -11 2 -75 17 -144 34 -69 16 -141 32 -160 35
-19 3 -46 8 -60 11 -104 21 -289 47 -425 60 -38 4 -81 9 -95 12 -31 7 -723 17
-730 10z"/>
</g>
</svg>
